<?xml version="1.0" standalone="no"?>
<!DOCTYPE svg PUBLIC "-//W3C//DTD SVG 20010904//EN"
 "http://www.w3.org/TR/2001/REC-SVG-20010904/DTD/svg10.dtd">
<svg version="1.0" xmlns="http://www.w3.org/2000/svg"
 width="588.000000pt" height="588.000000pt" viewBox="0 0 588.000000 588.000000"
 preserveAspectRatio="xMidYMid meet">
<metadata>
Created by potrace 1.11, written by Peter Selinger 2001-2013
</metadata>
<g transform="translate(0.000000,588.000000) scale(0.100000,-0.100000)"
fill="#000000" stroke="none">
<path d="M1949 3312 c-943 -2 -1007 -3 -1021 -20 -9 -9 -138 -399 -287 -867
l-271 -850 0 -106 c0 -95 2 -108 21 -125 20 -18 55 -19 1094 -22 l1072 -2 7
-52 c5 -38 10 -48 19 -39 22 22 30 11 9 -12 -26 -27 -29 -69 -7 -87 9 -7 32
-39 51 -71 41 -65 57 -75 87 -54 35 24 51 17 20 -9 l-28 -24 25 -27 24 -26 28
30 c15 16 36 36 46 43 10 7 38 42 62 78 41 60 145 170 163 170 4 0 -13 -25
-38 -55 -54 -66 -80 -116 -89 -170 l-8 -40 53 53 c59 58 83 69 46 20 -14 -18
-32 -48 -41 -66 -16 -31 -16 -34 1 -60 10 -15 27 -45 37 -67 21 -47 30 -37 40
44 7 51 6 56 -25 87 -37 38 -30 44 19 14 l32 -20 0 170 0 170 1059 0 c1055 0
1103 1 1123 33 4 7 8 63 8 126 l0 113 -255 802 c-312 978 -285 898 -315 913
-20 10 -205 12 -890 10 -476 -1 -1318 -3 -1871 -5z m-581 -114 c16 -16 15 -48
-4 -122 -25 -96 -25 -96 -179 -96 -102 0 -135 3 -144 14 -17 21 32 180 62 201
27 19 246 22 265 3z m367 -2 c18 -13 18 -19 6 -97 -18 -120 -17 -119 -176
-119 -159 0 -163 2 -145 82 23 102 33 126 54 136 33 16 238 15 261 -2z m371 4
l27 -11 -7 -87 c-10 -123 -9 -122 -171 -122 -161 0 -161 0 -144 97 16 91 24
112 51 123 32 12 211 12 244 0z m492 -96 c4 -125 5 -124 -157 -124 -85 0 -131
4 -139 12 -13 13 -15 90 -4 153 5 25 15 43 28 50 12 6 69 8 145 5 l124 -5 3
-91z m359 84 c6 -7 13 -50 16 -95 7 -112 6 -113 -156 -113 -160 0 -161 1 -151
114 3 44 11 87 16 94 8 8 48 12 138 12 90 0 130 -4 137 -12z m381 0 c5 -7 13
-35 17 -63 3 -27 8 -64 11 -82 8 -55 -10 -63 -153 -63 -161 0 -163 1 -163 115
0 50 5 86 12 93 17 17 262 17 276 0z m471 -2 c6 -8 19 -51 27 -96 12 -63 13
-84 4 -96 -16 -19 -257 -20 -283 -1 -22 16 -43 173 -26 194 17 19 262 19 278
-1z m369 1 c6 -7 20 -50 30 -96 26 -111 27 -111 -134 -111 -152 0 -155 2 -172
118 -7 45 -10 87 -7 92 10 16 270 13 283 -3z m380 1 c5 -7 22 -51 36 -97 20
-64 24 -87 15 -97 -16 -19 -257 -20 -283 -1 -18 13 -61 181 -51 198 10 14 271
12 283 -3z m-3245 -300 c0 -25 -8 -71 -17 -101 -14 -47 -21 -57 -47 -66 -40
-14 -228 -15 -263 -1 -31 12 -32 23 -5 114 32 109 28 107 193 104 l141 -3 -2
-47z m385 36 c12 -21 -15 -175 -34 -194 -19 -19 -286 -22 -305 -3 -9 9 -7 30
6 90 28 127 21 123 185 123 116 0 140 -3 148 -16z m391 7 c11 -7 12 -27 6 -95
-8 -96 -17 -112 -70 -122 -54 -10 -243 0 -256 13 -15 15 5 156 27 191 14 21
20 22 147 22 72 0 138 -4 146 -9z m489 -3 c16 -16 16 -180 0 -196 -18 -18
-292 -17 -307 1 -13 17 3 172 20 193 15 19 269 20 287 2z m386 -4 c20 -19 23
-173 4 -192 -13 -13 -262 -18 -292 -6 -13 5 -16 23 -16 94 0 121 -1 120 160
120 104 0 132 -3 144 -16z m396 1 c18 -22 33 -174 19 -191 -18 -22 -282 -20
-303 2 -20 19 -23 173 -4 192 19 19 272 16 288 -3z m494 -7 c8 -13 20 -58 27
-101 10 -67 10 -80 -2 -88 -8 -5 -75 -9 -150 -9 -105 0 -139 3 -148 14 -17 21
-33 176 -20 193 9 10 46 13 145 13 128 0 134 -1 148 -22z m380 4 c19 -22 52
-162 43 -186 -5 -14 -27 -16 -146 -16 -109 0 -143 3 -154 15 -15 14 -37 116
-37 167 0 15 6 29 13 31 6 3 69 6 138 6 110 1 128 -1 143 -17z m394 1 c23 -20
68 -164 59 -187 -5 -13 -29 -16 -145 -16 -95 0 -144 4 -155 13 -20 14 -54 163
-44 190 6 15 23 17 136 17 108 0 132 -3 149 -17z m-3378 -258 c16 -19 -16
-171 -42 -197 -16 -16 -36 -18 -156 -18 -185 0 -183 -1 -148 116 14 49 34 95
43 102 26 19 287 17 303 -3z m393 3 c16 -12 16 -21 6 -96 -7 -45 -18 -90 -25
-100 -10 -14 -34 -17 -156 -20 -190 -4 -188 -6 -160 114 13 53 28 94 39 101
23 18 273 18 296 1z m411 -1 c16 -12 18 -23 11 -96 -10 -120 -13 -121 -176
-121 -72 0 -139 5 -150 10 -22 12 -24 40 -8 126 17 89 26 94 178 94 90 0 133
-4 145 -13z m507 3 c17 -9 19 -22 19 -100 0 -119 -1 -120 -175 -120 -170 0
-169 -1 -159 109 10 119 12 121 170 121 69 0 134 -5 145 -10z m402 -2 c12 -10
18 -36 23 -99 7 -85 6 -87 -19 -104 -22 -14 -47 -16 -162 -13 -107 2 -138 6
-146 18 -6 8 -8 52 -6 99 3 67 7 86 22 97 25 19 264 20 288 2z m422 -11 c18
-25 31 -175 16 -190 -8 -8 -60 -12 -157 -12 -177 0 -174 -2 -174 122 0 104 -1
103 173 100 111 -2 130 -4 142 -20z m495 10 c19 -9 27 -25 37 -72 20 -98 17
-124 -14 -136 -16 -6 -81 -9 -150 -7 -150 4 -152 5 -163 114 -9 86 -6 101 18
107 40 11 248 6 272 -6z m399 0 c19 -9 29 -28 43 -82 25 -98 23 -113 -9 -126
-16 -6 -81 -9 -151 -7 -146 4 -155 10 -167 105 -3 32 -9 68 -12 80 -4 17 1 25
18 32 36 15 249 13 278 -2z m411 0 c19 -9 31 -31 52 -95 15 -46 24 -90 21 -97
-8 -21 -59 -28 -188 -24 -85 3 -118 8 -129 19 -14 15 -46 139 -46 179 0 26 14
28 150 30 74 0 124 -4 140 -12z m-3500 -263 c16 -16 -18 -172 -42 -196 -16
-16 -38 -18 -173 -18 -178 0 -177 -1 -155 84 20 82 40 123 63 134 29 15 292
11 307 -4z m411 -1 c20 -20 -7 -179 -34 -198 -30 -21 -309 -22 -326 -1 -9 11
-8 31 5 87 20 89 29 107 57 119 33 14 283 8 298 -7z m428 1 c11 -3 12 -22 7
-92 -10 -124 -7 -122 -186 -122 -189 0 -186 -2 -164 110 18 96 24 108 62 112
38 4 264 -2 281 -8z m539 -94 c2 -80 0 -97 -15 -107 -12 -9 -61 -13 -164 -13
-178 0 -175 -2 -165 107 11 120 1 114 184 111 l157 -3 3 -95z m410 88 c16 -16
16 -180 0 -196 -8 -8 -58 -12 -158 -12 -184 0 -184 0 -174 116 4 44 11 85 17
92 13 17 298 17 315 0z m430 -1 c18 -21 27 -174 12 -192 -10 -12 -40 -15 -158
-15 -183 0 -182 0 -182 115 0 50 5 86 12 93 18 18 302 17 316 -1z m525 1 c9
-8 22 -46 32 -98 14 -79 14 -86 -2 -97 -24 -18 -292 -18 -316 0 -22 16 -43
173 -26 194 16 18 288 19 312 1z m419 -5 c9 -10 24 -53 34 -95 25 -109 26
-108 -150 -108 -180 0 -180 0 -196 114 -6 47 -9 90 -5 95 4 7 61 11 154 11
128 0 150 -2 163 -17z m431 0 c8 -10 25 -53 38 -95 31 -109 32 -108 -146 -108
-176 0 -177 0 -200 117 -9 46 -13 87 -10 93 4 6 65 10 154 10 128 0 150 -2
164 -17z m-3654 -260 c6 -12 2 -46 -13 -103 -27 -108 -30 -110 -201 -110 -142
0 -171 4 -179 27 -9 22 42 181 62 193 9 5 85 10 169 10 135 0 153 -2 162 -17z
m429 1 c13 -23 -13 -173 -33 -193 -13 -13 -42 -16 -170 -16 -197 0 -195 -2
-165 116 12 46 28 90 37 97 12 8 63 12 169 12 130 0 154 -2 162 -16z m442 1
c16 -20 4 -170 -16 -190 -20 -20 -86 -27 -212 -23 -147 4 -149 6 -128 119 10
53 22 89 33 97 26 19 306 17 323 -3z m548 3 c16 -16 16 -180 0 -196 -8 -8 -61
-12 -175 -12 -135 0 -163 3 -171 15 -14 25 6 178 25 193 23 17 304 17 321 0z
m432 -8 c17 -17 20 -33 20 -98 0 -47 -5 -83 -12 -90 -17 -17 -319 -17 -336 0
-7 7 -12 44 -12 94 0 116 -2 114 176 114 131 0 146 -2 164 -20z m443 8 c20
-15 40 -163 25 -190 -8 -16 -26 -18 -168 -18 -195 0 -190 -3 -190 115 0 69 3
86 18 94 26 15 294 14 315 -1z m550 0 c10 -8 23 -45 33 -95 23 -116 28 -113
-166 -113 -176 0 -176 0 -185 68 -20 160 -29 152 159 152 98 0 147 -4 159 -12z
m435 -6 c10 -10 26 -55 37 -101 16 -71 17 -84 4 -92 -23 -14 -312 -11 -331 4
-29 22 -50 190 -25 200 6 3 76 6 155 6 124 1 144 -1 160 -17z m440 3 c28 -21
77 -172 61 -192 -16 -18 -307 -19 -333 0 -24 18 -61 174 -45 193 17 21 286 20
317 -1z m-3787 -261 c11 -13 10 -30 -4 -97 -25 -119 -23 -118 -220 -115 -195
4 -192 1 -159 115 33 113 33 113 217 113 127 0 155 -3 166 -16z m443 3 c17
-12 17 -20 6 -88 -6 -41 -13 -81 -16 -90 -8 -31 -52 -39 -204 -39 -124 0 -151
3 -165 16 -9 9 -14 22 -11 29 2 7 10 41 17 76 8 40 21 72 35 86 22 22 30 23
172 23 107 0 153 -4 166 -13z m460 0 c16 -12 18 -23 11 -96 -11 -122 -10 -121
-198 -121 -197 0 -196 -1 -178 105 16 97 19 105 45 115 36 15 300 12 320 -3z
m560 3 c25 -9 26 -12 26 -99 0 -122 1 -121 -190 -121 -179 0 -194 6 -185 78 3
26 8 66 11 88 3 30 11 44 27 52 28 13 277 15 311 2z m443 0 c30 -11 30 -13 37
-98 9 -122 9 -122 -183 -122 -186 0 -191 3 -190 98 1 89 10 115 39 123 40 11
264 10 297 -1z m483 -6 c7 -7 16 -49 22 -95 14 -117 11 -119 -176 -119 -93 0
-149 5 -166 13 -24 12 -25 16 -25 107 0 92 1 94 25 102 40 11 307 5 320 -8z
m571 -1 c12 -12 38 -122 39 -166 0 -40 -29 -47 -183 -47 -183 0 -191 6 -198
141 -4 59 -2 64 21 76 32 17 303 14 321 -4z m421 7 c20 -6 39 -18 42 -28 29
-108 38 -164 27 -175 -16 -16 -274 -22 -323 -8 -41 13 -41 14 -58 119 -12 76
-10 87 25 95 39 9 250 7 287 -3z m459 0 c26 -7 40 -18 47 -38 22 -59 42 -126
42 -144 0 -31 -46 -40 -197 -36 -165 4 -167 4 -188 94 -22 90 -20 122 8 127
46 9 253 7 288 -3z"/>
<path d="M2570 1033 c0 -17 7 -37 16 -44 15 -12 16 -10 9 21 -10 48 -25 62
-25 23z"/>
<path d="M2815 910 c-23 -46 -24 -53 -11 -78 l14 -27 7 40 c3 22 10 57 14 78
5 20 7 37 5 37 -2 0 -15 -23 -29 -50z"/>
<path d="M2696 888 c8 -62 18 -78 32 -51 8 14 6 30 -8 61 -11 23 -22 42 -25
42 -3 0 -3 -24 1 -52z"/>
<path d="M2571 850 c0 -51 3 -69 9 -55 5 11 9 36 9 55 0 19 -4 44 -9 55 -6 14
-9 -4 -9 -55z"/>
<path d="M2939 873 c-1 -10 -3 -28 -4 -40 -1 -14 6 -25 21 -32 28 -12 27 -13
13 45 -11 44 -28 59 -30 27z"/>
<path d="M2920 766 c0 -9 -7 -16 -15 -16 -11 0 -15 -12 -15 -50 0 -46 -2 -50
-27 -56 -16 -3 -39 -11 -52 -17 -20 -10 -26 -9 -34 5 -10 15 -12 15 -23 0 -10
-13 -16 -14 -35 -5 -13 6 -36 14 -51 17 -24 5 -27 11 -30 53 -2 29 -8 48 -17
51 -12 4 -13 -9 -7 -72 7 -78 -1 -96 -26 -56 -8 12 -24 20 -41 20 -30 0 -47
28 -47 81 0 16 -5 29 -11 29 -9 0 -10 -22 -6 -75 6 -70 5 -75 -13 -75 -16 0
-20 7 -21 33 0 17 -4 41 -9 52 -8 18 -9 17 -9 -7 -1 -22 -7 -29 -28 -33 -16
-4 -35 -10 -43 -14 -22 -12 -100 -12 -100 0 0 5 -13 9 -28 9 -39 0 -52 17 -52
67 0 26 -5 43 -11 43 -9 0 -10 -22 -6 -75 4 -59 3 -75 -8 -75 -7 0 -15 5 -17
11 -4 12 -210 -5 -236 -20 -43 -24 98 -38 531 -53 496 -16 1216 7 1251 42 10
10 -7 15 -101 30 -40 7 -73 16 -73 21 0 5 -14 9 -30 9 -34 0 -50 26 -50 81 0
16 -5 29 -11 29 -9 0 -10 -22 -6 -75 6 -63 4 -75 -8 -75 -8 0 -15 4 -15 9 0
15 -71 19 -77 4 -3 -7 -10 -13 -15 -13 -6 0 -7 28 -3 75 6 65 5 75 -9 75 -13
0 -16 -11 -16 -50 0 -46 -2 -50 -27 -56 -41 -9 -83 -28 -83 -36 0 -5 -4 -8
-10 -8 -5 0 -10 15 -11 33 0 17 -4 41 -9 52 -8 18 -9 17 -9 -7 -1 -22 -7 -29
-28 -33 -16 -4 -36 -10 -45 -16 -27 -14 -48 -11 -48 9 -1 9 -9 32 -19 51 l-18
34 -14 -58 c-16 -65 -39 -86 -39 -36 0 17 9 53 19 81 16 42 17 51 5 61 -11 9
-14 8 -14 -5z"/>
</g>
</svg>
